<?xml version="1.0" standalone="no"?><!DOCTYPE svg PUBLIC "-//W3C//DTD SVG 1.1//EN" "http://www.w3.org/Graphics/SVG/1.1/DTD/svg11.dtd"><svg class="icon" width="128px" height="128.00px" viewBox="0 0 1024 1024" version="1.1" xmlns="http://www.w3.org/2000/svg"><path fill="#707070" d="M476.16 170.496c-6.656-3.072-13.824-6.144-20.992-8.704-83.968-26.624-209.92-55.808-335.36-44.032-19.456 2.048-34.304 18.432-34.304 37.888v691.712c0 10.752 4.608 20.48 12.288 27.648s17.92 10.752 28.672 10.24c121.344-9.216 242.176 10.24 349.184 55.296l0.512 0.512V170.496zM907.776 117.76c-125.952-11.776-251.904 17.408-335.36 44.032-7.168 2.56-14.336 5.632-20.992 8.704v769.536l0.512-0.512c107.008-45.056 227.84-64 349.184-55.296 10.752 1.024 20.992-2.56 28.672-10.24 7.68-7.168 12.288-17.408 12.288-27.648V155.648c0.512-19.968-14.336-36.352-34.304-37.888z" /></svg>