<?xml version="1.0" standalone="no"?><!DOCTYPE svg PUBLIC "-//W3C//DTD SVG 1.1//EN" "http://www.w3.org/Graphics/SVG/1.1/DTD/svg11.dtd"><svg t="1555739164280" class="icon" style="" viewBox="0 0 1024 1024" version="1.1" xmlns="http://www.w3.org/2000/svg" p-id="1874" xmlns:xlink="http://www.w3.org/1999/xlink" width="128" height="128"><defs><style type="text/css"></style></defs><path d="M258.711094 193.036545l511.976575 0 0 63.996197L258.711094 257.032742 258.711094 193.036545zM257.004169 321.655911l511.975575 0 0 63.996197-511.975575 0L257.004169 321.655911zM257.004169 449.642306l131.305249 0 0 63.997197L257.004169 513.639503 257.004169 449.642306zM257.004169 577.638699l57.945462 0 0 63.997197-57.945462 0L257.004169 577.638699zM898.682063 0 130.7177 0C95.374248 0 66.721503 28.652745 66.721503 63.997197l0 895.956757c0 35.343452 28.652745 63.996197 63.996197 63.996197l299.388887-0.327986 0-63.996197-299.388887 0.327986 0-895.956757L898.683063 63.997197l0 422.3795 63.996197 0L962.67926 63.997197C962.67826 28.652745 934.020516 0 898.682063 0L898.682063 0z" p-id="1875"></path><path d="M891.355384 1011.452698 671.927995 758.694769l-49.028853 46.751952L495.449725 670.566629l134.647102-128.409376 127.449418 134.880092-46.665956 44.51305L949.586834 955.92813c15.219333 16.105295 14.517364 41.585179-1.562932 56.914507C931.956606 1028.184965 906.574718 1027.557993 891.355384 1011.452698zM780.528238 657.427205l-129.737318-137.303986c-9.510583-10.063559-9.079602-25.996861 0.971957-35.581442s25.897866-9.190597 35.421449 0.873962l129.737318 137.315986c9.510583 10.064559 9.079602 25.996861-0.971957 35.581442C805.897127 667.884747 790.050821 667.502763 780.528238 657.427205zM472.467732 690.17777l129.750317 137.303986c9.510583 10.063559 9.079602 25.996861-0.971957 35.581442-10.05156 9.58458-25.910865 9.190597-35.421449-0.873962l-129.750317-137.303986c-9.510583-10.076559-9.067603-25.996861 0.971957-35.581442C447.097843 679.720228 462.957148 680.114211 472.467732 690.17777z" p-id="1876"></path></svg>