<?xml version="1.0" standalone="no"?><!DOCTYPE svg PUBLIC "-//W3C//DTD SVG 1.1//EN" "http://www.w3.org/Graphics/SVG/1.1/DTD/svg11.dtd"><svg t="1554545748104" class="icon" style="" viewBox="0 0 1024 1024" version="1.1" xmlns="http://www.w3.org/2000/svg" p-id="880" data-spm-anchor-id="a313x.7781069.0.i2" xmlns:xlink="http://www.w3.org/1999/xlink" width="128" height="128"><defs><style type="text/css"></style></defs><path d="M845.74814815 150.94518518c-134.47016297-12.1362963-236.17232592-83.98317037-284.96023704-119.05706666-11.65084445-8.37404445-25.2434963-12.86447408-39.3216-12.86447407-16.99081482 0-33.61754075 6.5536-46.8461037 18.56853333-81.92 74.03140741-219.06014815 105.8285037-293.57700741 111.53256297-36.77297778 2.79134815-65.536 36.0448-65.536 75.73048888V539.91348148c0 150.7328 224.15739259 468.09694815 400.13368889 468.09694815 184.10761482 0 395.15780741-323.91774815 395.15780741-456.44610371V226.43294815c0.12136297-39.80705185-27.91348148-72.21096297-65.05054815-75.48776297zM547.0738963 513.69908148v194.6661926c0 19.05398518-15.4130963 34.58844445-34.58844445 34.58844444-19.05398518 0-34.58844445-15.4130963-34.58844444-34.58844444V513.21362963c-47.57428148-15.04900741-82.28408889-59.22512592-82.28408889-111.65392593 0-64.80782222 52.67152592-117.47934815 117.47934815-117.47934815s117.60071111 52.67152592 117.60071111 117.47934815c0.12136297 52.91425185-35.31662222 97.57582222-83.61908148 112.13937778z" fill="#bfcbd9" p-id="881"></path></svg>