<?xml version="1.0" standalone="no"?><!DOCTYPE svg PUBLIC "-//W3C//DTD SVG 1.1//EN" "http://www.w3.org/Graphics/SVG/1.1/DTD/svg11.dtd"><svg class="icon" width="128px" height="125.19px" viewBox="0 0 1047 1024" version="1.1" xmlns="http://www.w3.org/2000/svg"><path fill="#707070" d="M28.049827 767.733367a27.623214 27.623214 0 0 1-13.246344-16.680582 27.83652 27.83652 0 0 1 40.229638-32.017331L495.38341 963.506228l476.889723-155.777861c19.1976-39.675041 24.103654-79.072783 14.590176-117.126692a152.300962 152.300962 0 0 0-18.387035-43.4719L487.427072 811.631879 27.943174 554.042745a27.793859 27.793859 0 1 1 27.1966-48.569929L492.951714 750.924801l479.513395-163.990168c20.882723-34.641003 24.274299-71.64971 10.025413-110.066242a180.329459 180.329459 0 0 0-24.658251-44.559763l-470.127901 169.322835-459.803858-256.607924a27.601883 27.601883 0 0 1-13.203682-16.701913 27.879182 27.879182 0 0 1 40.29363-31.910677l437.683956 244.257467 470.511852-169.450818c25.810107-41.594801 32.529267-82.208391 19.901513-120.774237a134.084573 134.084573 0 0 0-14.590177-30.502854L487.875016 402.509686 0 136.601591 537.383494-0.106653l452.082156 158.63617 4.330126 4.13815c2.858309 2.751656 28.199142 27.857851 42.149398 70.433862 12.819731 39.163105 18.024414 100.574095-28.711078 172.501104 8.532267 12.201142 18.941632 29.542974 26.897971 50.553681 21.458651 56.61159 15.592718 113.22318-16.851227 164.07549a208.400617 208.400617 0 0 1 23.03712 54.926468c9.961421 38.267217 13.886264 98.611674-24.060992 168.746907l-5.311336 9.748114-521.342832 170.304046L28.049827 767.733367z m463.963338-426.357372L900.367454 186.259384l-92.788401-32.550598-406.199892 138.265384 90.634004 49.401825z" /></svg>