<?xml version="1.0" standalone="no"?><!DOCTYPE svg PUBLIC "-//W3C//DTD SVG 1.1//EN" "http://www.w3.org/Graphics/SVG/1.1/DTD/svg11.dtd"><svg class="icon" width="128px" height="128.00px" viewBox="0 0 1024 1024" version="1.1" xmlns="http://www.w3.org/2000/svg"><path fill="#707070" d="M854.739 793.068h-685.478c-15.070 0-27.289 12.217-27.289 27.289s12.218 27.289 27.289 27.289h685.479c15.072 0 27.287-12.217 27.287-27.289s-12.217-27.289-27.289-27.289z"  /><path fill="#707070" d="M950.794 164.349h-877.587c-39.121 0-70.949 31.827-70.949 70.949v397.315c0 39.122 31.827 70.949 70.949 70.949h877.587c39.121 0 70.949-31.827 70.949-70.949v-397.315c0-39.121-31.828-70.949-70.949-70.949zM141.972 648.987c0 0 0-74.586 0-120.097 2.916-27.733 46.801-36.267 54.37 0l0.206 120.097h-54.576zM277.107 649.342c0 0 0-36.186 0-81.697 2.916-27.734 46.802-36.267 54.371 0l0.206 81.697h-54.577zM412.978 649.342c0 0 0-36.186 0-81.697 2.916-27.734 46.802-36.267 54.371 0l0.206 81.697h-54.577zM548.8 649.342c0 0 0-36.186 0-81.697 2.916-27.734 46.802-36.267 54.371 0l0.206 81.697h-54.577zM683.556 649.342c0 0 0-36.186 0-81.697 2.916-27.734 46.802-36.267 54.371 0l0.206 81.697h-54.577zM818.695 648.987c0 0 0-74.586 0-120.097 2.916-27.733 46.802-36.267 54.371 0l0.206 120.097h-54.577z"  /></svg>