<?xml version="1.0" standalone="no"?><!DOCTYPE svg PUBLIC "-//W3C//DTD SVG 1.1//EN" "http://www.w3.org/Graphics/SVG/1.1/DTD/svg11.dtd"><svg class="icon" width="128px" height="128.00px" viewBox="0 0 1024 1024" version="1.1" xmlns="http://www.w3.org/2000/svg"><path fill="#707070" d="M927 96H95c-17.673 0-32 14.327-32 32s14.327 32 32 32h33v480.5c0 52.107 42.393 94.5 94.5 94.5h214.602L297.551 874.551c-12.398 12.398-12.398 32.5 0 44.898s32.5 12.398 44.898 0L512 749.898l169.551 169.551c6.199 6.199 14.324 9.299 22.449 9.299s16.25-3.1 22.449-9.299c12.398-12.398 12.398-32.5 0-44.898L586.898 735H801.5c52.107 0 94.5-42.393 94.5-94.5V160h31c17.673 0 32-14.327 32-32s-14.327-32-32-32z m-94 544.5c0 17.369-14.131 31.5-31.5 31.5h-579c-17.369 0-31.5-14.131-31.5-31.5V160h642v480.5z"  /><path fill="#707070" d="M351 320h320c17.673 0 32-14.327 32-32s-14.327-32-32-32H351c-17.673 0-32 14.327-32 32s14.327 32 32 32zM351 447h320c17.673 0 32-14.327 32-32s-14.327-32-32-32H351c-17.673 0-32 14.327-32 32s14.327 32 32 32zM351 576h193c17.673 0 32-14.326 32-32s-14.327-32-32-32H351c-17.673 0-32 14.326-32 32s14.327 32 32 32z"  /></svg>