<?xml version="1.0" standalone="no"?><!DOCTYPE svg PUBLIC "-//W3C//DTD SVG 1.1//EN" "http://www.w3.org/Graphics/SVG/1.1/DTD/svg11.dtd"><svg class="icon" width="128px" height="128.00px" viewBox="0 0 1024 1024" version="1.1" xmlns="http://www.w3.org/2000/svg"><path fill="#707070" d="M752.128 909.312V114.688c0-11.264 9.216-20.48 20.48-20.48h51.2c11.264 0 20.48 9.216 20.48 20.48v794.112c0 11.264-9.216 20.48-20.48 20.48h-51.2c-11.264 0.512-20.48-8.704-20.48-19.968zM473.088 909.312V114.688c0-11.264 9.216-20.48 20.48-20.48h51.2c11.264 0 20.48 9.216 20.48 20.48v794.112c0 11.264-9.216 20.48-20.48 20.48h-51.2c-11.264 0.512-20.48-8.704-20.48-19.968zM182.272 909.312V114.688c0-11.264 9.216-20.48 20.48-20.48h51.2c11.264 0 20.48 9.216 20.48 20.48v794.112c0 11.264-9.216 20.48-20.48 20.48h-51.2c-11.264 0.512-20.48-8.704-20.48-19.968z"  /><path fill="#707070" d="M688.64 797.184v-183.296c0-16.896 13.824-30.72 30.72-30.72h152.064c16.896 0 30.72 13.824 30.72 30.72v183.296c0 16.896-13.824 30.72-30.72 30.72h-152.064c-16.896 0-30.72-13.824-30.72-30.72zM121.856 797.184v-183.296c0-16.896 13.824-30.72 30.72-30.72h152.064c16.896 0 30.72 13.824 30.72 30.72v183.296c0 16.896-13.824 30.72-30.72 30.72H152.576c-16.896 0-30.72-13.824-30.72-30.72zM410.112 410.624V227.328c0-16.896 13.824-30.72 30.72-30.72h152.064c16.896 0 30.72 13.824 30.72 30.72v183.296c0 16.896-13.824 30.72-30.72 30.72H440.832c-16.896 0-30.72-13.824-30.72-30.72z"  /></svg>